<svg xmlns="http://www.w3.org/2000/svg" width="1024" height="1024" viewBox="0 0 1024 1024">
<g>
<path d="M 0.00 0.00 L 1024.00 0.00 L 1024.00 1024.00 L 0.00 1024.00 ZM 528.02 716.99 C528.03,722.21 528.33,724.04 529.00,723.00 C529.53,722.17 529.98,719.86 529.98,717.86 C530.00,714.04 532.35,711.95 534.37,713.97 C535.93,715.53 538.00,715.20 538.00,713.38 C538.00,712.24 537.39,711.93 535.94,712.31 C534.27,712.74 533.94,712.43 534.19,710.67 C534.62,707.62 539.00,707.00 539.00,709.99 C539.00,711.16 539.37,711.89 539.82,711.61 C540.27,711.33 541.90,711.75 543.44,712.55 C547.24,714.53 549.00,714.37 549.00,712.06 C549.00,710.99 549.37,709.89 549.81,709.61 C551.91,708.32 569.01,709.40 572.03,711.02 C573.05,711.56 580.10,712.24 587.69,712.53 C595.32,712.81 601.65,713.48 601.83,714.02 C602.27,715.30 605.71,715.29 606.50,714.00 C606.89,713.37 619.28,713.00 640.38,713.00 C676.31,713.00 678.68,712.72 689.49,707.25 C696.50,703.70 705.19,694.46 709.17,686.30 L 712.50 679.50 L 713.03 631.50 C713.32,605.10 713.66,584.06 713.78,584.75 C714.08,586.47 718.66,586.33 719.33,584.57 C720.19,582.35 717.23,580.38 715.07,581.73 C713.45,582.73 713.28,582.31 713.12,576.96 C712.76,565.18 707.79,554.67 698.53,546.14 C687.26,535.74 671.23,533.10 667.03,540.95 C666.38,542.15 665.99,554.80 665.98,574.69 C665.97,592.18 665.86,607.40 665.73,608.50 C665.57,609.90 666.17,610.59 667.75,610.82 C671.11,611.30 670.46,612.83 666.75,613.19 C664.05,613.45 663.31,614.07 662.40,616.90 C661.19,620.64 655.97,624.29 650.10,625.52 C647.22,626.12 646.80,625.98 647.35,624.61 C647.71,623.73 648.27,622.33 648.61,621.50 C648.94,620.67 648.81,620.00 648.33,620.00 C647.84,620.00 646.90,621.41 646.25,623.14 L 645.07 626.29 L 636.78 625.74 C628.28,625.19 615.22,621.18 612.94,618.42 C612.05,617.35 612.45,616.21 614.73,613.27 L 614.89 613.06 C617.11,610.21 618.23,608.78 618.22,607.35 C618.21,605.86 616.97,604.37 614.47,601.31 C598.02,581.11 599.61,559.63 619.00,539.89 C629.66,529.04 639.85,524.21 660.79,520.08 C669.20,518.43 676.51,516.80 677.04,516.48 C678.48,515.59 678.20,512.34 676.54,510.68 C675.73,509.88 672.02,508.70 668.29,508.06 C656.67,506.08 641.76,501.85 635.50,498.76 C625.76,493.96 620.11,489.77 620.32,487.50 C620.45,486.09 619.89,485.50 618.44,485.50 C613.89,485.50 606.12,472.86 603.76,461.59 C601.49,450.76 605.50,437.60 614.41,426.66 C618.61,421.51 619.00,420.64 617.76,419.17 C614.90,415.76 600.61,398.49 600.40,398.17 C600.28,397.99 596.67,399.52 592.39,401.58 C583.36,405.93 573.39,407.18 565.25,404.98 C554.37,402.04 538.58,388.22 531.37,375.34 C526.28,366.22 523.63,358.85 519.51,342.31 C517.48,334.16 515.61,326.71 515.34,325.75 C514.86,323.98 511.54,323.32 510.61,324.82 C510.34,325.26 508.96,330.78 507.55,337.07 C501.36,364.79 494.99,378.27 482.03,391.11 C471.39,401.65 461.97,406.36 451.73,406.24 C443.39,406.15 438.34,404.56 430.53,399.56 C427.47,397.60 424.56,396.00 424.06,396.00 C423.57,396.00 422.32,397.16 421.29,398.58 L 419.41 401.16 L 414.67 398.64 C403.81,392.86 385.62,391.53 372.00,395.50 C366.71,397.04 350.16,404.85 346.95,407.31 C346.09,407.96 343.93,410.64 342.15,413.25 C340.36,415.86 338.46,418.00 337.92,418.00 C337.37,418.00 336.02,419.91 334.92,422.25 C333.82,424.59 331.96,428.30 330.79,430.50 C329.63,432.70 328.30,435.28 327.84,436.24 C327.38,437.19 327.00,440.90 327.00,444.49 C327.00,448.52 326.58,451.00 325.91,451.00 C323.91,451.00 326.30,469.02 328.97,474.00 C329.71,475.38 331.37,477.89 332.66,479.59 C335.75,483.68 335.61,484.77 331.41,489.50 C323.60,498.30 305.01,521.88 301.08,527.98 C297.85,532.99 296.97,535.24 297.20,537.95 C297.67,543.51 300.08,544.22 315.90,543.46 L 329.31 542.82 L 326.15 546.81 C324.42,549.00 323.00,551.28 323.00,551.89 C323.00,552.49 322.10,553.55 321.00,554.23 C319.90,554.92 319.00,555.85 319.00,556.31 C319.00,556.77 318.34,557.80 317.54,558.60 C316.74,559.41 315.80,561.74 315.47,563.78 C315.13,565.83 314.33,568.58 313.68,569.90 C312.82,571.65 312.50,586.68 312.50,625.40 L 312.50 678.50 L 315.72 685.29 C319.68,693.65 328.47,703.11 335.40,706.47 C342.90,710.10 351.55,712.12 354.61,710.96 C356.00,710.43 359.24,709.96 361.82,709.92 C364.39,709.88 365.94,709.62 365.25,709.34 C363.10,708.47 363.88,707.00 366.50,707.00 C368.74,707.00 369.00,706.60 369.00,703.07 C369.00,699.76 369.35,699.09 371.24,698.82 C373.68,698.47 375.05,695.00 372.75,695.00 C371.98,695.00 369.78,694.21 367.86,693.25 L 364.37 691.50 L 364.72 685.00 C365.24,675.49 365.09,671.42 363.87,662.50 C363.27,658.10 362.71,651.91 362.64,648.75 C362.56,645.59 362.18,643.00 361.78,643.00 C361.39,643.00 361.32,642.33 361.64,641.50 C362.10,640.30 361.30,640.00 357.68,640.00 C352.32,640.00 350.00,638.14 350.00,633.83 C350.00,631.73 350.95,629.91 353.11,627.90 C356.25,624.97 360.00,624.02 360.00,626.17 C360.00,626.81 360.28,627.05 360.62,626.71 C360.97,626.37 360.89,625.28 360.46,624.29 C360.03,623.31 359.62,621.83 359.55,621.00 C359.48,620.17 358.94,618.60 358.35,617.50 C357.76,616.40 357.01,612.22 356.69,608.20 C356.21,602.23 355.69,600.56 353.80,598.99 C352.54,597.93 352.02,597.05 352.65,597.03 C354.26,596.99 355.89,591.85 355.29,588.72 C354.95,586.94 353.83,585.79 351.74,585.06 C350.06,584.47 348.10,583.16 347.38,582.13 C346.65,581.09 344.24,579.97 341.93,579.60 C337.99,578.97 337.82,578.80 338.53,576.22 C338.94,574.72 339.32,570.80 339.39,567.50 L 339.50 561.50 L 342.66 561.80 C345.04,562.03 346.70,561.32 349.44,558.91 C354.88,554.14 355.48,552.49 353.04,549.06 C351.34,546.67 351.17,545.69 352.05,543.38 C353.40,539.81 352.37,533.65 350.06,531.56 C349.08,530.67 345.98,529.67 343.17,529.33 C338.32,528.76 337.90,528.90 334.54,532.26 C332.40,534.40 331.00,536.78 331.00,538.26 C331.00,540.48 330.49,540.78 325.75,541.35 C317.17,542.38 305.68,542.06 303.00,540.71 C299.04,538.72 299.26,534.58 303.71,527.26 C308.05,520.12 321.81,502.69 330.97,492.74 L 337.19 485.98 L 340.17 488.49 C344.45,492.09 349.09,491.87 352.41,487.92 C355.49,484.26 355.52,483.89 353.17,476.76 L 351.34 471.22 L 357.25 464.11 C360.50,460.20 362.86,457.00 362.49,457.00 C362.13,457.00 358.99,459.73 355.51,463.06 C352.04,466.40 348.98,468.76 348.71,468.31 C347.34,466.01 344.83,452.74 345.31,450.31 C347.34,439.93 351.27,430.46 354.19,428.90 C355.19,428.37 356.00,427.32 356.00,426.58 C356.00,424.45 363.76,418.00 369.45,415.40 C378.77,411.13 393.01,410.60 403.79,414.11 C406.37,414.95 406.95,415.59 406.47,417.08 C406.05,418.40 407.24,420.65 410.39,424.53 C416.01,431.42 420.64,440.72 422.21,448.24 C423.81,455.93 422.07,466.18 417.76,474.40 C413.63,482.27 402.29,493.62 394.45,497.73 C387.98,501.12 374.48,504.98 360.54,507.41 C355.82,508.23 351.52,509.18 350.98,509.51 C350.44,509.85 350.00,511.66 350.00,513.54 C350.00,516.27 350.45,517.07 352.25,517.47 C353.49,517.76 359.68,519.08 366.02,520.43 C386.33,524.73 397.62,529.95 407.21,539.50 C418.08,550.32 423.00,561.06 423.00,573.99 C423.00,584.20 420.60,590.73 413.39,600.05 L 407.92 607.14 L 411.09 610.82 C412.84,612.84 417.42,617.78 421.27,621.79 L 428.28 629.07 L 436.89 624.80 C444.77,620.89 446.13,620.54 453.00,620.58 C461.86,620.64 466.01,622.35 476.50,630.29 C480.86,633.59 483.44,636.24 483.35,637.34 C483.26,638.49 484.12,639.28 485.85,639.63 C488.86,640.25 495.55,648.29 494.49,650.02 C494.12,650.62 494.95,652.78 496.34,654.81 C499.55,659.48 503.99,671.70 507.56,685.64 C509.08,691.62 510.78,697.08 511.32,697.79 C513.53,700.67 515.31,698.46 517.18,690.50 C519.66,679.96 525.91,660.17 526.96,659.52 C527.42,659.24 528.05,659.68 528.36,660.51 C529.58,663.69 535.00,661.51 535.00,657.84 C535.00,655.82 532.17,654.03 530.12,654.76 C527.02,655.87 534.68,644.69 541.88,637.60 C551.54,628.10 553.58,626.54 560.70,623.27 C572.07,618.05 586.84,620.91 599.94,630.90 C605.97,635.48 614.90,639.55 624.22,641.93 C632.97,644.17 638.27,644.47 645.50,643.14 C648.25,642.63 650.64,642.35 650.81,642.50 C650.98,642.66 649.69,644.42 647.94,646.42 C640.34,655.07 624.25,664.57 613.50,666.75 C608.14,667.83 600.97,667.72 599.02,666.51 C598.36,666.11 597.32,666.28 596.71,666.89 C596.10,667.50 593.58,668.00 591.10,668.00 C587.65,668.00 586.87,667.73 587.78,666.82 C589.16,665.44 587.62,663.00 585.38,663.00 C584.62,663.00 584.00,662.33 584.00,661.50 C584.00,660.67 583.33,660.00 582.50,660.00 C580.80,660.00 580.49,661.57 582.00,662.50 C582.55,662.84 583.00,663.97 583.00,665.01 C583.00,666.05 583.72,667.31 584.61,667.80 C585.75,668.44 584.42,668.87 579.99,669.27 C576.57,669.58 573.28,670.32 572.68,670.92 C572.09,671.51 570.00,672.00 568.04,672.00 C565.64,672.00 564.10,672.61 563.31,673.88 C562.45,675.25 560.41,675.94 555.68,676.44 C552.12,676.82 547.55,678.03 545.50,679.13 C542.13,680.94 541.63,680.98 540.07,679.56 C536.12,675.99 532.30,679.44 533.44,685.55 C534.33,690.29 533.14,694.00 530.37,695.05 C529.07,695.54 527.99,696.75 527.98,697.73 C527.97,699.24 527.83,699.28 527.00,698.00 C526.24,696.83 526.03,697.08 526.02,699.18 C526.00,701.49 526.34,701.81 528.46,701.42 C532.72,700.65 534.26,706.73 530.25,708.49 C528.20,709.39 528.00,710.15 528.02,716.99 ZM 681.76 496.43 C683.27,497.25 686.42,497.94 688.76,497.96 C697.52,498.04 703.63,487.99 699.58,480.16 C698.01,477.11 698.02,477.00 700.00,477.00 C702.57,477.00 709.11,467.19 711.10,460.33 C712.23,456.45 712.50,444.72 712.50,400.45 L 712.50 345.40 L 708.58 337.45 C701.96,324.05 689.86,314.57 676.11,312.01 C664.42,309.82 597.81,311.76 593.50,314.41 C592.16,315.23 590.34,315.37 588.00,314.83 C583.87,313.87 575.08,314.76 573.14,316.33 C572.39,316.94 568.21,317.47 563.85,317.51 C557.45,317.57 555.62,317.24 554.31,315.79 C553.42,314.81 552.20,314.01 551.60,314.03 C550.99,314.05 551.50,314.90 552.73,315.93 L 554.96 317.79 L 551.41 321.84 C549.44,324.09 545.94,326.62 543.55,327.54 C538.80,329.35 537.00,332.09 537.00,337.50 C537.00,340.28 537.75,341.51 541.03,344.15 C543.25,345.93 544.86,347.93 544.60,348.60 C544.08,349.96 547.01,350.97 551.53,350.99 C553.19,350.99 555.44,351.61 556.53,352.36 C561.18,355.58 570.58,356.01 578.00,353.34 C579.38,352.85 581.72,352.50 583.22,352.57 C584.71,352.64 585.70,352.33 585.42,351.87 C584.30,350.06 587.11,347.00 589.88,347.00 C592.92,347.00 597.26,350.14 597.62,352.60 C597.86,354.24 601.74,358.00 603.18,358.00 C603.67,358.00 604.28,357.43 604.55,356.73 C605.16,355.13 612.27,355.59 616.50,357.50 C618.15,358.24 620.78,359.17 622.35,359.56 C625.37,360.31 632.48,364.63 640.17,370.40 C647.62,375.99 655.56,386.68 660.77,398.15 L 665.47 408.50 L 666.01 438.00 L 666.56 467.50 L 669.30 472.43 C671.15,475.78 671.71,477.69 671.02,478.38 C670.46,478.94 670.00,480.43 670.00,481.70 C670.00,484.24 672.73,484.87 674.80,482.80 C675.73,481.87 676.00,482.43 676.00,485.35 C676.00,490.15 678.28,494.55 681.76,496.43 ZM 519.00 575.89 C519.00,577.36 510.48,577.18 501.50,575.53 C483.42,572.20 467.69,560.60 458.73,544.00 C452.54,532.53 451.50,528.06 451.52,513.00 C451.54,500.09 451.68,499.14 454.82,491.30 C459.08,480.68 467.34,469.41 475.24,463.48 C482.91,457.71 486.57,455.83 495.50,453.04 C504.52,450.22 520.61,449.97 529.50,452.51 C550.19,458.42 566.84,474.95 572.91,495.61 C574.06,499.52 575.00,503.07 575.00,503.50 C575.00,503.93 571.96,503.98 568.25,503.61 C557.25,502.53 555.00,501.94 555.00,500.14 C554.99,499.24 554.06,496.98 552.93,495.12 L 550.87 491.73 L 554.49 488.75 C556.47,487.11 557.90,485.57 557.65,485.32 C557.40,485.07 555.15,485.79 552.65,486.93 C546.39,489.78 539.41,489.70 536.94,486.75 C534.55,483.88 534.56,482.60 537.02,475.45 C538.12,472.23 538.90,469.21 538.74,468.73 C538.59,468.26 536.36,470.78 533.80,474.35 L 529.14 480.83 L 523.55 479.10 C520.48,478.15 517.54,476.94 517.01,476.41 C516.49,475.89 515.53,471.94 514.89,467.64 C514.14,462.61 513.43,460.30 512.88,461.16 C512.41,461.90 512.02,463.76 512.02,465.31 C512.01,466.85 511.50,470.09 510.90,472.50 C509.89,476.49 509.38,477.02 505.22,478.44 C497.66,481.02 496.65,480.67 492.36,474.01 C490.24,470.71 488.19,468.01 487.82,468.01 C487.15,468.00 487.31,468.71 490.29,478.64 L 491.83 483.78 L 488.62 486.89 C484.72,490.67 483.61,490.71 475.35,487.40 C471.78,485.98 468.70,484.96 468.51,485.15 C468.32,485.34 471.05,487.75 474.58,490.50 C479.07,494.00 480.80,495.95 480.34,497.00 C479.98,497.83 478.91,501.42 477.97,505.00 L 476.25 511.50 L 469.60 512.61 C465.94,513.22 462.71,513.95 462.43,514.23 C462.15,514.51 465.20,515.37 469.21,516.14 L 476.50 517.53 L 478.17 522.52 C479.95,527.84 480.48,532.99 479.25,533.02 C478.84,533.03 476.25,535.07 473.50,537.55 L 468.50 542.06 L 472.50 540.41 C473.49,540.00 474.40,539.63 475.22,539.29 C481.50,536.69 483.23,535.98 484.58,536.42 C485.28,536.65 485.87,537.19 486.92,537.94 C491.15,540.95 491.62,543.92 489.21,552.34 L 487.16 559.50 L 489.83 556.11 C494.83,549.77 496.43,547.61 498.36,547.26 C499.34,547.08 500.41,547.37 502.04,547.80 C502.22,547.85 502.41,547.90 502.60,547.95 C509.27,549.72 510.75,551.71 511.57,560.04 C511.95,563.87 512.56,567.00 512.93,567.00 C513.31,567.00 514.18,563.63 514.87,559.51 C515.56,555.39 516.76,551.39 517.53,550.62 C518.30,549.85 521.26,548.66 524.11,547.97 L 524.16 547.96 C526.42,547.42 527.78,547.09 528.96,547.43 C530.77,547.94 532.14,550.04 535.62,555.34 C537.01,557.46 538.32,559.01 538.53,558.80 C538.74,558.59 538.04,555.58 536.96,552.12 C534.32,543.65 534.44,542.70 538.53,539.10 C540.48,537.40 542.17,536.00 542.28,536.00 C542.40,536.01 545.83,537.36 549.90,539.02 C553.97,540.68 557.48,541.85 557.71,541.62 C557.94,541.40 555.39,539.11 552.06,536.55 C548.73,533.98 546.00,531.43 546.00,530.88 C546.00,528.48 549.40,519.40 550.69,518.35 C551.46,517.72 555.06,516.65 558.68,515.97 C565.99,514.59 565.52,513.61 557.08,512.66 C550.00,511.87 549.25,510.98 552.14,506.85 C553.44,505.01 554.49,503.44 554.50,503.37 C554.50,503.29 559.22,503.76 565.00,504.41 L 575.50 505.58 L 575.37 514.73 C574.97,541.34 556.64,566.20 531.78,573.83 C528.32,574.89 524.04,575.53 522.25,575.26 C520.24,574.96 519.00,575.20 519.00,575.89 ZM 523.42 529.18 C516.38,533.99 508.24,533.52 501.15,527.90 C495.19,523.16 493.29,513.27 496.96,506.09 C499.28,501.53 504.12,497.23 507.83,496.42 C509.30,496.10 511.11,495.64 511.86,495.41 C514.14,494.69 521.18,497.04 524.63,499.67 C528.59,502.69 532.01,509.39 531.97,514.07 C531.93,519.06 527.96,526.09 523.42,529.18 ZM 465.79 343.08 C469.00,345.12 471.67,346.00 474.61,346.00 C478.30,346.00 479.65,345.29 485.33,340.39 C490.57,335.86 492.03,333.93 492.92,330.39 C494.77,323.08 491.89,318.53 482.32,313.64 C479.24,312.07 479.04,312.10 476.13,314.54 C473.70,316.59 472.98,316.80 472.32,315.65 C471.38,314.03 464.01,312.60 462.48,313.74 C460.85,314.95 458.00,319.79 458.00,321.35 C458.00,322.13 457.05,323.01 455.90,323.32 C453.45,323.96 454.26,326.00 456.97,326.00 C458.44,326.00 458.95,327.05 459.48,331.25 C460.50,339.29 460.85,339.95 465.79,343.08 ZM 516.34 437.89 C513.53,439.17 513.25,439.18 510.31,437.99 C507.11,436.70 504.66,432.49 505.40,429.53 C506.98,423.26 514.13,421.04 518.55,425.45 C522.36,429.27 521.23,435.66 516.34,437.89 ZM 516.69 601.53 C515.48,601.88 513.71,602.38 512.74,602.65 C510.66,603.23 505.00,597.99 505.00,595.48 C505.00,592.62 508.37,587.95 510.88,587.32 C514.42,586.43 518.31,588.17 519.82,591.30 C521.56,594.95 519.82,600.63 516.69,601.53 ZM 486.56 719.78 C490.22,725.01 501.01,720.39 499.56,714.20 C498.77,710.85 494.60,707.00 491.76,707.00 C486.27,707.00 483.09,714.82 486.56,719.78 ZM 466.65 680.94 C471.94,681.85 474.93,679.71 474.97,674.97 C475.02,669.15 472.87,667.11 467.00,667.40 C461.54,667.68 459.75,668.61 462.02,670.01 C463.19,670.73 463.23,671.17 462.24,672.16 C460.80,673.60 460.64,676.88 461.91,678.89 C462.40,679.66 464.53,680.58 466.65,680.94 ZM 466.25 593.23 C463.51,595.64 460.73,596.03 457.76,594.43 C450.31,590.41 455.26,579.45 463.27,582.24 C467.98,583.89 469.70,590.20 466.25,593.23 ZM 441.69 518.83 C438.78,521.55 435.03,521.61 432.19,518.96 C429.31,516.28 429.41,512.49 432.45,509.45 C435.45,506.46 437.90,506.35 441.37,509.07 C444.71,511.70 444.84,515.86 441.69,518.83 ZM 465.64 443.45 C462.58,446.51 458.73,446.73 456.00,444.00 C453.30,441.30 453.48,437.43 456.45,434.45 C459.35,431.56 462.00,431.34 464.85,433.75 C468.29,436.66 468.60,440.49 465.64,443.45 ZM 571.00 444.00 C569.90,445.10 567.88,446.00 566.50,446.00 C560.82,446.00 557.87,438.13 562.00,434.00 C563.10,432.90 565.12,432.00 566.50,432.00 C572.18,432.00 575.13,439.87 571.00,444.00 ZM 571.25 593.19 C570.29,594.02 568.83,594.93 568.00,595.22 C566.17,595.85 561.84,594.34 560.79,592.70 C559.38,590.48 559.97,585.34 561.83,583.65 C564.26,581.46 569.28,581.55 571.35,583.83 C573.51,586.22 573.46,591.29 571.25,593.19 ZM 517.18 395.66 C514.34,397.82 510.35,397.25 508.07,394.37 C505.68,391.32 505.62,390.93 507.11,387.66 C509.27,382.91 515.83,382.29 518.63,386.57 C520.47,389.37 519.79,393.68 517.18,395.66 ZM 580.81 579.96 C578.04,582.55 575.95,582.54 572.63,579.93 C567.25,575.69 571.25,567.02 577.93,568.48 C583.18,569.64 584.84,576.21 580.81,579.96 ZM 581.00 456.00 C576.70,460.30 570.00,457.40 570.00,451.24 C570.00,447.24 572.31,445.00 576.42,445.00 C582.43,445.00 585.24,451.76 581.00,456.00 ZM 455.00 456.00 C453.90,457.10 451.88,458.00 450.50,458.00 C449.12,458.00 447.10,457.10 446.00,456.00 C441.90,451.90 444.65,445.00 450.40,445.00 C456.43,445.00 459.25,451.75 455.00,456.00 ZM 526.07 734.25 C526.01,740.48 526.16,741.00 528.12,741.00 C529.28,741.00 531.87,739.58 533.87,737.85 C540.84,731.79 557.41,715.74 559.39,713.13 C560.48,711.68 558.25,713.42 554.41,717.00 C546.54,724.34 538.83,731.30 534.47,735.00 C531.88,737.19 531.75,737.22 533.41,735.25 C535.36,732.94 534.35,732.05 532.20,734.20 C530.54,735.86 530.69,734.40 532.46,731.71 C534.14,729.13 533.44,727.56 530.25,726.76 C528.35,726.28 527.99,726.60 527.93,728.84 C527.87,731.23 527.77,731.29 527.00,729.50 C526.40,728.11 526.12,729.55 526.07,734.25 ZM 594.00 519.00 C591.42,521.58 587.96,521.55 585.13,518.91 C582.08,516.06 582.58,511.38 586.23,508.66 L 588.97 506.63 L 592.44 510.57 C596.50,515.16 596.71,516.29 594.00,519.00 ZM 717.49 502.94 C715.92,504.86 716.36,504.69 719.59,502.15 C725.80,497.25 730.90,490.14 730.96,486.31 C731.04,481.42 724.02,479.98 708.15,481.64 C703.05,482.17 702.00,482.60 702.00,484.14 C702.00,486.39 703.33,486.53 705.36,484.50 C706.45,483.40 709.12,483.00 715.25,483.00 C722.84,483.00 723.87,483.23 725.92,485.41 C728.74,488.41 728.15,490.74 723.13,496.40 C721.13,498.65 718.59,501.60 717.49,502.94 ZM 417.07 366.37 C419.60,369.58 422.37,369.74 424.44,366.78 C426.65,363.63 426.38,361.29 423.48,358.39 C421.62,356.53 420.38,356.06 418.73,356.57 C414.46,357.91 413.74,362.13 417.07,366.37 ZM 454.44 579.78 C453.59,581.00 451.99,582.00 450.90,582.00 C448.81,582.00 444.00,577.84 444.00,576.05 C444.00,574.27 447.89,571.00 450.00,571.00 C452.24,571.00 456.00,574.31 456.00,576.28 C456.00,576.98 455.30,578.56 454.44,579.78 ZM 367.34 687.43 C367.78,688.59 368.87,689.03 370.74,688.82 C372.89,688.57 373.57,687.91 373.81,685.83 C374.02,684.03 376.09,681.42 380.17,677.83 C389.21,669.88 389.43,669.64 388.10,669.20 C387.46,668.99 383.68,671.73 379.70,675.29 C375.72,678.85 371.62,681.93 370.59,682.13 C368.15,682.61 366.51,685.28 367.34,687.43 ZM 517.15 640.56 C516.43,642.15 515.25,642.97 513.77,642.92 C509.89,642.79 509.00,641.95 509.00,638.44 C509.00,635.65 509.45,634.93 511.50,634.41 C516.43,633.17 519.17,636.15 517.15,640.56 ZM 675.39 500.16 C676.22,500.75 678.19,500.40 680.23,499.30 C680.63,499.08 679.34,496.47 677.37,493.50 C674.30,488.88 673.57,488.29 672.39,489.47 C671.62,490.23 671.00,491.58 671.00,492.46 C671.00,494.15 673.78,499.03 675.39,500.16 ZM 627.00 513.04 C627.00,515.26 623.91,517.74 621.75,517.25 C619.51,516.74 618.40,512.43 620.01,510.49 C622.35,507.66 627.00,509.37 627.00,513.04 ZM 486.05 657.56 C487.65,659.49 488.62,659.38 491.00,657.00 C493.51,654.49 493.50,653.76 490.94,651.45 C489.37,650.02 488.48,649.83 487.19,650.64 C485.07,651.97 484.46,655.65 486.05,657.56 ZM 447.67 340.33 C449.52,342.19 451.84,340.72 453.36,336.72 C454.26,334.36 455.00,332.11 455.00,331.72 C455.00,330.37 451.94,331.00 451.38,332.46 C451.07,333.27 449.96,334.20 448.91,334.53 C447.05,335.12 446.24,338.91 447.67,340.33 ZM 406.80 513.91 C406.58,515.85 405.85,516.58 403.91,516.80 C398.99,517.37 397.40,510.96 402.10,509.47 C404.84,508.60 407.16,510.80 406.80,513.91 ZM 617.00 585.00 C618.21,587.26 619.27,587.46 622.07,585.96 C624.80,584.50 624.60,580.39 621.75,579.63 C618.43,578.74 618.17,578.82 617.00,581.00 C616.24,582.42 616.24,583.58 617.00,585.00 ZM 475.00 301.21 C475.00,301.73 478.20,298.91 482.11,294.95 C486.74,290.27 489.48,288.16 489.95,288.92 C490.47,289.76 491.08,289.60 492.09,288.36 C493.29,286.87 493.29,286.74 492.10,287.46 C491.16,288.02 490.92,287.94 491.38,287.20 C491.76,286.59 492.64,286.31 493.35,286.58 C494.80,287.14 498.67,283.34 497.66,282.33 C497.30,281.97 495.88,282.19 494.50,282.82 C491.62,284.13 475.00,299.81 475.00,301.21 ZM 415.87 667.35 C417.21,668.96 423.00,669.32 423.00,667.79 C423.00,667.29 422.55,667.16 422.00,667.50 C421.44,667.85 421.00,667.07 421.00,665.73 C421.00,664.20 421.90,662.85 423.50,662.00 C424.87,661.27 425.78,660.45 425.52,660.19 C425.26,659.93 424.35,660.30 423.49,661.01 C422.64,661.72 420.76,662.34 419.33,662.40 C416.00,662.53 414.11,665.23 415.87,667.35 ZM 339.61 512.43 C340.41,514.50 344.89,514.45 345.69,512.36 C346.45,510.38 344.86,507.61 342.71,507.19 C340.80,506.81 338.77,510.24 339.61,512.43 ZM 382.00 691.50 C382.00,693.08 382.56,694.00 383.53,694.00 C384.66,694.00 385.02,693.02 384.90,690.25 C384.63,684.17 384.00,682.43 382.03,682.28 C380.44,682.16 380.30,682.56 381.03,685.09 C381.57,686.98 381.81,687.79 381.92,688.61 C382.00,689.27 382.00,689.94 382.00,691.19 ZM 480.25 686.26 C482.18,687.56 482.62,687.57 483.32,686.36 C484.93,683.57 483.66,680.52 480.75,680.18 C478.41,679.91 478.00,680.23 478.00,682.31 C478.00,683.73 478.94,685.39 480.25,686.26 ZM 448.00 353.39 C448.00,354.47 451.16,351.88 455.70,347.09 C458.93,343.69 459.17,342.00 456.42,342.00 C455.61,342.00 454.52,343.14 453.99,344.53 C453.46,345.92 451.90,348.28 450.51,349.77 C449.13,351.26 448.00,352.89 448.00,353.39 ZM 453.59 710.37 C453.97,711.37 455.36,712.00 457.17,712.00 C459.81,712.00 460.10,711.70 459.82,709.25 C459.60,707.35 458.85,706.41 457.41,706.20 C454.86,705.84 452.74,708.16 453.59,710.37 ZM 700.24 497.89 C701.86,498.49 702.82,498.27 703.71,497.11 C704.90,495.55 705.44,493.00 704.58,493.00 C704.35,493.00 703.51,492.75 702.71,492.44 C701.22,491.87 698.00,494.38 698.00,496.10 C698.00,496.63 699.01,497.44 700.24,497.89 ZM 374.68 370.60 C374.97,371.37 376.29,372.00 377.61,372.00 C379.50,372.00 380.00,371.47 380.00,369.47 C380.00,366.28 377.18,365.03 375.42,367.43 C374.72,368.40 374.38,369.83 374.68,370.60 ZM 393.67 609.33 C394.89,610.56 398.06,610.02 398.64,608.49 C399.47,606.34 397.29,604.11 394.96,604.72 C393.07,605.22 392.30,607.96 393.67,609.33 ZM 651.00 445.92 C654.70,448.51 661.00,445.69 661.00,441.44 C661.00,440.10 660.55,439.00 660.00,439.00 C659.45,439.00 659.00,440.05 659.00,441.34 C659.00,444.09 654.91,446.38 651.64,445.47 C649.94,444.99 649.81,445.08 651.00,445.92 ZM 578.00 338.67 C578.00,340.39 577.53,340.35 576.00,338.50 C575.32,337.67 573.71,337.00 572.44,337.00 C571.16,337.00 569.82,336.51 569.45,335.91 C568.56,334.48 570.83,332.16 571.79,333.51 C572.18,334.06 573.74,335.14 575.25,335.92 C576.76,336.70 578.00,337.94 578.00,338.67 ZM 445.43 651.89 C446.17,653.08 449.67,652.54 451.36,650.97 C452.45,649.97 451.30,648.00 449.63,648.00 C447.49,648.00 444.65,650.62 445.43,651.89 ZM 496.75 318.26 C497.71,318.48 499.17,318.04 500.00,317.27 C501.33,316.04 501.28,315.71 499.58,314.46 C498.16,313.40 497.32,313.32 496.33,314.14 C494.46,315.69 494.67,317.78 496.75,318.26 ZM 390.00 666.60 C390.00,668.21 391.20,667.81 394.25,665.19 C396.05,663.65 396.64,661.00 395.19,661.00 C393.74,661.00 390.00,665.04 390.00,666.60 ZM 447.67 727.33 C450.06,729.73 454.36,726.57 453.83,722.81 C453.58,721.03 452.80,720.46 450.50,720.32 C448.64,720.21 448.26,720.35 449.50,720.69 C451.71,721.29 452.96,722.79 452.98,724.86 C453.00,725.81 452.09,726.09 450.00,725.79 C447.11,725.36 446.26,725.93 447.67,727.33 ZM 648.75 439.56 C650.25,440.66 650.67,440.53 651.67,438.67 C652.31,437.48 652.76,436.45 652.67,436.39 C652.58,436.33 651.26,435.98 649.75,435.62 C647.59,435.10 647.00,435.32 647.00,436.62 C647.00,437.53 647.79,438.86 648.75,439.56 ZM 579.44 325.09 C578.27,326.98 575.00,325.38 575.00,322.92 C575.00,321.70 575.69,321.00 576.89,321.00 C578.86,321.00 580.42,323.51 579.44,325.09 ZM 472.00 642.96 C475.26,643.84 478.00,643.12 478.00,641.38 C478.00,639.70 476.07,639.62 472.32,641.14 L 469.50 642.28 ZM 451.70 697.37 C453.03,698.69 455.50,697.47 455.50,695.49 C455.50,694.19 454.72,693.39 453.25,693.18 C451.59,692.95 451.00,693.36 451.00,694.76 C451.00,695.81 451.32,696.98 451.70,697.37 ZM 376.33 693.19 C378.67,693.52 379.82,691.42 378.19,689.79 C377.65,689.25 376.28,689.09 375.15,689.45 C372.58,690.27 373.37,692.77 376.33,693.19 ZM 432.00 656.04 C432.00,657.64 432.53,658.06 434.25,657.82 C435.88,657.59 436.40,656.94 436.15,655.50 C435.71,652.89 435.39,652.64 433.54,653.35 C432.69,653.67 432.00,654.88 432.00,656.04 ZM 313.17 412.83 C312.90,414.77 313.23,415.10 315.17,414.83 C318.18,414.40 318.48,410.50 315.50,410.50 C314.17,410.50 313.39,411.28 313.17,412.83 ZM 548.00 652.11 C548.00,653.30 548.70,654.00 549.89,654.00 C552.13,654.00 553.29,651.69 551.80,650.20 C550.31,648.71 548.00,649.87 548.00,652.11 ZM 419.67 638.33 C421.29,639.96 424.50,637.73 423.66,635.56 C423.16,634.25 422.62,634.13 421.01,634.99 C418.94,636.10 418.51,637.17 419.67,638.33 ZM 700.10 540.06 C700.98,540.61 702.01,540.42 702.87,539.56 C704.43,538.00 703.61,536.00 701.41,536.00 C699.37,536.00 698.40,539.01 700.10,540.06 ZM 689.92 503.75 C690.23,504.75 692.13,503.63 693.05,501.91 C694.40,499.38 693.81,498.61 691.17,499.45 C689.51,499.97 689.15,501.22 689.92,503.75 ZM 392.34 461.03 C391.91,463.20 392.04,464.09 392.73,463.67 C394.31,462.69 395.32,455.92 394.07,454.67 C393.31,453.91 393.00,454.20 393.00,455.67 C393.00,456.82 392.70,459.23 392.34,461.03 ZM 536.32 368.40 C537.08,370.36 538.38,370.45 539.89,368.63 C540.74,367.60 540.70,367.00 539.73,366.19 C538.00,364.76 535.54,366.35 536.32,368.40 ZM 586.87 359.75 C587.33,360.65 590.00,359.76 590.00,358.70 C590.00,357.33 588.07,355.00 586.94,355.00 C586.41,355.00 586.35,358.74 586.87,359.75 ZM 369.67 654.33 C370.72,655.39 371.74,655.12 372.31,653.62 C372.85,652.24 371.29,650.00 369.80,650.00 C368.83,650.00 368.73,653.40 369.67,654.33 ZM 412.00 645.11 C412.00,646.54 413.60,646.14 416.14,644.09 C417.44,643.03 418.20,641.87 417.84,641.51 C417.05,640.72 412.00,643.84 412.00,645.11 ZM 572.81 677.74 C572.46,679.55 569.91,680.57 568.71,679.38 C567.76,678.43 569.91,676.00 571.70,676.00 C572.54,676.00 573.01,676.73 572.81,677.74 ZM 462.19 652.26 C461.96,653.46 462.50,654.00 463.93,654.00 C465.36,654.00 466.00,653.36 466.00,651.93 C466.00,649.36 462.69,649.65 462.19,652.26 ZM 567.69 645.35 C568.76,646.43 570.47,645.51 570.82,643.67 C571.04,642.54 570.47,642.00 569.07,642.00 C567.07,642.00 566.27,643.94 567.69,645.35 ZM 541.00 641.98 C544.17,644.06 546.51,642.50 543.72,640.18 C542.89,639.50 541.91,639.45 540.97,640.06 C539.68,640.88 539.69,641.12 541.00,641.98 ZM 447.21 322.13 C448.55,322.96 451.00,322.14 451.00,320.86 C451.00,320.35 450.28,319.66 449.40,319.32 C447.51,318.60 445.56,321.11 447.21,322.13 ZM 438.00 656.17 C438.00,657.92 440.28,656.48 441.12,654.20 C441.71,652.61 441.56,652.00 440.57,652.00 C439.27,652.00 438.00,654.05 438.00,656.17 ZM 537.45 651.91 C538.43,653.50 541.00,653.24 541.00,651.56 C541.00,649.60 539.06,648.54 537.80,649.80 C537.24,650.36 537.08,651.31 537.45,651.91 ZM 655.00 593.56 C655.00,594.90 655.40,596.00 655.88,596.00 C656.86,596.00 658.00,591.34 657.22,590.55 C656.21,589.54 655.00,591.19 655.00,593.56 ZM 410.57 688.11 C411.21,689.15 413.38,689.29 414.32,688.34 C414.69,687.98 414.48,687.07 413.86,686.33 C413.01,685.31 412.40,685.26 411.38,686.10 C410.63,686.72 410.27,687.63 410.57,688.11 ZM 404.45 652.91 C404.82,653.51 405.51,654.00 406.00,654.00 C407.54,654.00 408.27,651.87 407.11,650.71 C405.73,649.33 403.42,651.25 404.45,652.91 ZM 555.25 647.78 C558.10,649.15 559.00,649.23 559.00,648.10 C559.00,647.60 557.65,646.73 556.00,646.15 C552.51,644.93 551.94,646.18 555.25,647.78 ZM 594.00 654.00 C594.00,655.11 594.67,656.00 595.50,656.00 C596.33,656.00 597.00,655.11 597.00,654.00 C597.00,652.89 596.33,652.00 595.50,652.00 C594.67,652.00 594.00,652.89 594.00,654.00 ZM 658.00 553.00 C658.00,554.65 658.45,556.00 659.00,556.00 C659.55,556.00 660.00,554.65 660.00,553.00 C660.00,551.35 659.55,550.00 659.00,550.00 C658.45,550.00 658.00,551.35 658.00,553.00 ZM 459.67 362.33 C460.88,363.55 463.00,363.02 463.00,361.50 C463.00,360.67 462.11,360.00 461.00,360.00 C459.01,360.00 458.40,361.07 459.67,362.33 ZM 370.45 475.91 C370.82,476.51 371.49,477.00 371.95,477.00 C373.28,477.00 374.02,474.13 372.87,473.42 C371.49,472.57 369.59,474.52 370.45,475.91 ZM 634.43 470.89 C634.81,471.50 635.51,472.00 636.00,472.00 C637.39,472.00 638.32,469.92 637.35,468.95 C636.17,467.77 633.57,469.49 634.43,470.89 ZM 651.61 609.25 C651.23,610.88 651.38,612.00 651.98,612.00 C652.54,612.00 653.01,611.44 653.01,610.75 C653.02,610.06 653.31,608.38 653.65,607.00 C654.07,605.32 653.94,604.83 653.27,605.50 C652.71,606.05 651.97,607.74 651.61,609.25 ZM 658.00 541.06 C658.00,542.84 658.42,543.86 659.00,543.50 C659.55,543.16 660.00,541.78 660.00,540.44 C660.00,539.10 659.55,538.00 659.00,538.00 C658.45,538.00 658.00,539.38 658.00,541.06 ZM 540.64 719.31 C541.57,720.24 543.00,719.11 543.00,717.44 C543.00,716.65 542.33,716.00 541.50,716.00 C539.99,716.00 539.44,718.11 540.64,719.31 ZM 587.50 662.00 C588.55,663.69 590.00,663.11 590.00,661.00 C590.00,659.90 589.58,659.00 589.06,659.00 C587.72,659.00 586.77,660.82 587.50,662.00 ZM 622.18 589.33 C621.99,590.32 622.50,591.00 623.43,591.00 C624.35,591.00 625.00,590.15 625.00,588.92 C625.00,586.48 622.66,586.82 622.18,589.33 ZM 576.00 384.92 C576.00,386.14 576.65,387.00 577.57,387.00 C578.50,387.00 579.01,386.32 578.82,385.33 C578.34,382.82 576.00,382.48 576.00,384.92 ZM 515.48 516.96 C515.99,517.80 516.56,517.78 517.63,516.89 C518.64,516.05 518.77,515.37 518.04,514.64 C516.71,513.31 514.47,515.33 515.48,516.96 ZM 563.29 678.89 C564.06,679.66 564.08,680.32 563.36,681.04 C562.63,681.77 561.95,681.64 561.11,680.63 C559.59,678.81 561.60,677.20 563.29,678.89 ZM 359.53 686.20 C359.78,686.45 359.38,687.46 358.65,688.46 C357.43,690.13 357.27,690.15 356.68,688.60 C356.08,687.05 358.42,685.08 359.53,686.20 ZM 657.00 579.06 C657.00,580.13 657.45,581.00 658.00,581.00 C658.55,581.00 659.00,579.85 659.00,578.44 C659.00,576.99 658.57,576.15 658.00,576.50 C657.45,576.84 657.00,577.99 657.00,579.06 ZM 654.00 417.50 C654.00,418.33 654.67,419.00 655.50,419.00 C656.33,419.00 657.00,418.33 657.00,417.50 C657.00,416.67 656.33,416.00 655.50,416.00 C654.67,416.00 654.00,416.67 654.00,417.50 ZM 490.00 302.50 C490.00,303.33 490.67,304.00 491.50,304.00 C492.33,304.00 493.00,303.33 493.00,302.50 C493.00,301.67 492.33,301.00 491.50,301.00 C490.67,301.00 490.00,301.67 490.00,302.50 ZM 631.00 444.00 C631.00,445.29 631.51,446.00 632.25,445.75 C632.94,445.52 633.50,444.73 633.50,444.00 C633.50,443.27 632.94,442.48 632.25,442.25 C631.51,442.00 631.00,442.71 631.00,444.00 ZM 718.18 529.45 C717.99,530.35 718.54,531.00 719.50,531.00 C720.53,531.00 721.02,530.34 720.81,529.25 C720.40,527.14 718.63,527.28 718.18,529.45 ZM 539.67 659.33 C540.82,660.48 542.00,660.06 542.00,658.50 C542.00,657.67 541.33,657.00 540.50,657.00 C538.94,657.00 538.52,658.18 539.67,659.33 ZM 435.54 694.07 C435.86,694.58 436.51,695.00 437.00,695.00 C438.40,695.00 439.13,693.20 438.02,692.51 C436.68,691.69 434.80,692.87 435.54,694.07 ZM 489.64 293.50 C489.25,294.52 489.69,295.00 491.00,295.00 C492.31,295.00 492.75,294.52 492.36,293.50 C492.05,292.67 491.43,292.00 491.00,292.00 C490.57,292.00 489.95,292.67 489.64,293.50 ZM 438.64 706.31 C439.44,707.11 441.00,706.20 441.00,704.94 C441.00,704.42 440.33,704.00 439.50,704.00 C437.95,704.00 437.51,705.18 438.64,706.31 ZM 447.00 640.58 C447.00,641.45 447.53,641.99 448.19,641.77 C450.04,641.15 450.35,639.00 448.58,639.00 C447.71,639.00 447.00,639.71 447.00,640.58 ZM 647.00 404.58 C647.00,406.35 649.15,406.04 649.77,404.19 C649.99,403.53 649.45,403.00 648.58,403.00 C647.71,403.00 647.00,403.71 647.00,404.58 ZM 719.00 557.58 C719.00,558.45 719.53,558.99 720.19,558.77 C722.04,558.15 722.35,556.00 720.58,556.00 C719.71,556.00 719.00,556.71 719.00,557.58 ZM 320.63 472.47 C320.97,473.36 321.67,473.94 322.20,473.77 C323.80,473.23 323.46,471.52 321.68,471.18 C320.50,470.95 320.19,471.33 320.63,472.47 ZM 714.15 542.56 C713.94,543.61 714.31,544.06 715.15,543.78 C716.71,543.26 716.98,541.03 715.50,540.95 C714.95,540.92 714.34,541.64 714.15,542.56 ZM 518.00 702.53 C518.00,704.15 519.56,704.52 520.44,703.10 C520.74,702.61 520.32,701.95 519.49,701.64 C518.59,701.29 518.00,701.64 518.00,702.53 ZM 613.00 383.00 C613.00,383.55 613.67,384.00 614.50,384.00 C615.33,384.00 616.00,383.55 616.00,383.00 C616.00,382.45 615.33,382.00 614.50,382.00 C613.67,382.00 613.00,382.45 613.00,383.00 ZM 421.00 358.94 C421.00,359.45 420.13,359.81 419.07,359.73 C418.01,359.65 417.36,359.23 417.63,358.79 C418.31,357.68 421.00,357.80 421.00,358.94 ZM 710.19 508.92 C709.99,509.52 710.58,510.00 711.50,510.00 C712.42,510.00 713.01,509.52 712.81,508.92 C712.61,508.33 712.02,507.85 711.50,507.85 C710.98,507.85 710.39,508.33 710.19,508.92 ZM 572.00 646.06 C572.00,646.58 572.45,647.00 573.00,647.00 C573.55,647.00 574.00,646.30 574.00,645.44 C574.00,644.58 573.55,644.16 573.00,644.50 C572.45,644.84 572.00,645.54 572.00,646.06 ZM 473.00 665.00 C473.00,665.55 473.70,666.00 474.56,666.00 C475.42,666.00 475.84,665.55 475.50,665.00 C475.16,664.45 474.46,664.00 473.94,664.00 C473.42,664.00 473.00,664.45 473.00,665.00 ZM 465.00 694.00 C465.00,694.55 465.70,695.00 466.56,695.00 C467.42,695.00 467.84,694.55 467.50,694.00 C467.16,693.45 466.46,693.00 465.94,693.00 C465.42,693.00 465.00,693.45 465.00,694.00 ZM 546.50 643.00 C546.16,643.55 546.58,644.00 547.44,644.00 C548.30,644.00 549.00,643.55 549.00,643.00 C549.00,642.45 548.58,642.00 548.06,642.00 C547.54,642.00 546.84,642.45 546.50,643.00 ZM 437.00 357.00 C437.00,357.55 437.42,358.00 437.94,358.00 C438.46,358.00 439.16,357.55 439.50,357.00 C439.84,356.45 439.42,356.00 438.56,356.00 C437.70,356.00 437.00,356.45 437.00,357.00 ZM 679.58 523.13 C680.21,524.15 680.45,524.15 680.79,523.14 C681.27,521.69 680.29,520.37 679.40,521.27 C679.07,521.60 679.15,522.44 679.58,523.13 ZM 534.58 566.13 C535.21,567.15 535.45,567.15 535.79,566.14 C536.27,564.69 535.29,563.37 534.40,564.27 C534.07,564.60 534.15,565.44 534.58,566.13 ZM 726.00 530.00 C726.00,530.55 726.45,531.00 727.00,531.00 C727.55,531.00 728.00,530.55 728.00,530.00 C728.00,529.45 727.55,529.00 727.00,529.00 C726.45,529.00 726.00,529.45 726.00,530.00 ZM 712.00 538.00 C712.00,538.55 712.45,539.00 713.00,539.00 C713.55,539.00 714.00,538.55 714.00,538.00 C714.00,537.45 713.55,537.00 713.00,537.00 C712.45,537.00 712.00,537.45 712.00,538.00 ZM 402.00 583.00 C402.00,583.55 402.45,584.00 403.00,584.00 C403.55,584.00 404.00,583.55 404.00,583.00 C404.00,582.45 403.55,582.00 403.00,582.00 C402.45,582.00 402.00,582.45 402.00,583.00 ZM 417.00 653.00 C417.00,653.55 417.45,654.00 418.00,654.00 C418.55,654.00 419.00,653.55 419.00,653.00 C419.00,652.45 418.55,652.00 418.00,652.00 C417.45,652.00 417.00,652.45 417.00,653.00 ZM 455.00 656.00 C455.00,656.55 455.45,657.00 456.00,657.00 C456.55,657.00 457.00,656.55 457.00,656.00 C457.00,655.45 456.55,655.00 456.00,655.00 C455.45,655.00 455.00,655.45 455.00,656.00 ZM 615.00 658.00 C615.00,658.55 615.45,659.00 616.00,659.00 C616.55,659.00 617.00,658.55 617.00,658.00 C617.00,657.45 616.55,657.00 616.00,657.00 C615.45,657.00 615.00,657.45 615.00,658.00 ZM 470.00 302.00 C470.00,302.55 470.45,303.00 471.00,303.00 C471.55,303.00 472.00,302.55 472.00,302.00 C472.00,301.45 471.55,301.00 471.00,301.00 C470.45,301.00 470.00,301.45 470.00,302.00 Z" fill="rgb(0,6,43)"/>
<path d="M 526.07 734.25 C526.12,729.55 526.40,728.11 527.00,729.50 C527.77,731.29 527.87,731.23 527.93,728.84 C527.99,726.60 528.35,726.28 530.25,726.76 C533.44,727.56 534.14,729.13 532.46,731.71 C530.69,734.40 530.54,735.86 532.20,734.20 C534.35,732.05 535.36,732.94 533.41,735.25 C531.75,737.22 531.88,737.19 534.47,735.00 C538.83,731.30 546.54,724.34 554.41,717.00 C558.25,713.42 560.48,711.68 559.39,713.13 C557.41,715.74 540.84,731.79 533.87,737.85 C531.87,739.58 529.28,741.00 528.12,741.00 C526.16,741.00 526.01,740.48 526.07,734.25 ZM 447.67 727.33 C446.26,725.93 447.11,725.36 450.00,725.79 C452.09,726.09 453.00,725.81 452.98,724.86 C452.96,722.79 451.71,721.29 449.50,720.69 C448.26,720.35 448.64,720.21 450.50,720.32 C452.80,720.46 453.58,721.03 453.83,722.81 C454.36,726.57 450.06,729.73 447.67,727.33 ZM 528.02 716.99 C528.00,710.15 528.20,709.39 530.25,708.49 C534.26,706.73 532.72,700.65 528.46,701.42 C526.34,701.81 526.00,701.49 526.02,699.18 C526.03,697.08 526.24,696.83 527.00,698.00 C527.83,699.28 527.97,699.24 527.98,697.73 C527.99,696.75 529.07,695.54 530.37,695.05 C533.14,694.00 534.33,690.29 533.44,685.55 C532.30,679.44 536.12,675.99 540.07,679.56 C541.63,680.98 542.13,680.94 545.50,679.13 C547.55,678.03 552.12,676.82 555.68,676.44 C560.41,675.94 562.45,675.25 563.31,673.88 C564.10,672.61 565.64,672.00 568.04,672.00 C570.00,672.00 572.09,671.51 572.68,670.92 C573.28,670.32 576.57,669.58 579.99,669.27 C584.42,668.87 585.75,668.44 584.61,667.80 C583.72,667.31 583.00,666.05 583.00,665.01 C583.00,663.97 582.55,662.84 582.00,662.50 C580.49,661.57 580.80,660.00 582.50,660.00 C583.33,660.00 584.00,660.67 584.00,661.50 C584.00,662.33 584.62,663.00 585.38,663.00 C587.62,663.00 589.16,665.44 587.78,666.82 C586.87,667.73 587.65,668.00 591.10,668.00 C593.58,668.00 596.10,667.50 596.71,666.89 C597.32,666.28 598.36,666.11 599.02,666.51 C600.97,667.72 608.14,667.83 613.50,666.75 C624.25,664.57 640.34,655.07 647.94,646.42 C649.69,644.42 650.98,642.66 650.81,642.50 C650.64,642.35 648.25,642.63 645.50,643.14 C638.27,644.47 632.97,644.17 624.22,641.93 C614.90,639.55 605.97,635.48 599.94,630.90 C586.84,620.91 572.07,618.05 560.70,623.27 C553.58,626.54 551.54,628.10 541.88,637.60 C534.68,644.69 527.02,655.87 530.12,654.76 C532.17,654.03 535.00,655.82 535.00,657.84 C535.00,661.51 529.58,663.69 528.36,660.51 C528.05,659.68 527.42,659.24 526.96,659.52 C525.91,660.17 519.66,679.96 517.18,690.50 C515.31,698.46 513.53,700.67 511.32,697.79 C510.78,697.08 509.08,691.62 507.56,685.64 C503.99,671.70 499.55,659.48 496.34,654.81 C494.95,652.78 494.12,650.62 494.49,650.02 C495.55,648.29 488.86,640.25 485.85,639.63 C484.12,639.28 483.26,638.49 483.35,637.34 C483.44,636.24 480.86,633.59 476.50,630.29 C466.01,622.35 461.86,620.64 453.00,620.58 C446.13,620.54 444.77,620.89 436.89,624.80 L 428.28 629.07 L 421.27 621.79 C417.42,617.78 412.84,612.84 411.09,610.82 L 407.92 607.14 L 413.39 600.05 C420.60,590.73 423.00,584.20 423.00,573.99 C423.00,561.06 418.08,550.32 407.21,539.50 C397.62,529.95 386.33,524.73 366.02,520.43 C359.68,519.08 353.49,517.76 352.25,517.47 C350.45,517.07 350.00,516.27 350.00,513.54 C350.00,511.66 350.44,509.85 350.98,509.51 C351.52,509.18 355.82,508.23 360.54,507.41 C374.48,504.98 387.98,501.12 394.45,497.73 C402.29,493.62 413.63,482.27 417.76,474.40 C422.07,466.18 423.81,455.93 422.21,448.24 C420.64,440.72 416.01,431.42 410.39,424.53 C407.24,420.65 406.05,418.40 406.47,417.08 C406.95,415.59 406.37,414.95 403.79,414.11 C393.01,410.60 378.77,411.13 369.45,415.40 C363.76,418.00 356.00,424.45 356.00,426.58 C356.00,427.32 355.19,428.37 354.19,428.90 C351.27,430.46 347.34,439.93 345.31,450.31 C344.83,452.74 347.34,466.01 348.71,468.31 C348.98,468.76 352.04,466.40 355.51,463.06 C358.99,459.73 362.13,457.00 362.49,457.00 C362.86,457.00 360.50,460.20 357.25,464.11 L 351.34 471.22 L 353.17 476.76 C355.52,483.89 355.49,484.26 352.41,487.92 C349.09,491.87 344.45,492.09 340.17,488.49 L 337.19 485.98 L 330.97 492.74 C321.81,502.69 308.05,520.12 303.71,527.26 C299.26,534.58 299.04,538.72 303.00,540.71 C305.68,542.06 317.17,542.38 325.75,541.35 C330.49,540.78 331.00,540.48 331.00,538.26 C331.00,536.78 332.40,534.40 334.54,532.26 C337.90,528.90 338.32,528.76 343.17,529.33 C345.98,529.67 349.08,530.67 350.06,531.56 C352.37,533.65 353.40,539.81 352.05,543.38 C351.17,545.69 351.34,546.67 353.04,549.06 C355.48,552.49 354.88,554.14 349.44,558.91 C346.70,561.32 345.04,562.03 342.66,561.80 L 339.50 561.50 L 339.39 567.50 C339.32,570.80 338.94,574.72 338.53,576.22 C337.82,578.80 337.99,578.97 341.93,579.60 C344.24,579.97 346.65,581.09 347.38,582.13 C348.10,583.16 350.06,584.47 351.74,585.06 C353.83,585.79 354.95,586.94 355.29,588.72 C355.89,591.85 354.26,596.99 352.65,597.03 C352.02,597.05 352.54,597.93 353.80,598.99 C355.69,600.56 356.21,602.23 356.69,608.20 C357.01,612.22 357.76,616.40 358.35,617.50 C358.94,618.60 359.48,620.17 359.55,621.00 C359.62,621.83 360.03,623.31 360.46,624.29 C360.89,625.28 360.97,626.37 360.62,626.71 C360.28,627.05 360.00,626.81 360.00,626.17 C360.00,624.02 356.25,624.97 353.11,627.90 C350.95,629.91 350.00,631.73 350.00,633.83 C350.00,638.14 352.32,640.00 357.68,640.00 C361.30,640.00 362.10,640.30 361.64,641.50 C361.32,642.33 361.39,643.00 361.78,643.00 C362.18,643.00 362.56,645.59 362.64,648.75 C362.71,651.91 363.27,658.10 363.87,662.50 C365.09,671.42 365.24,675.49 364.72,685.00 L 364.37 691.50 L 367.86 693.25 C369.78,694.21 371.98,695.00 372.75,695.00 C375.05,695.00 373.68,698.47 371.24,698.82 C369.35,699.09 369.00,699.76 369.00,703.07 C369.00,706.60 368.74,707.00 366.50,707.00 C363.88,707.00 363.10,708.47 365.25,709.34 C365.94,709.62 364.39,709.88 361.82,709.92 C359.24,709.96 356.00,710.43 354.61,710.96 C351.55,712.12 342.90,710.10 335.40,706.47 C328.47,703.11 319.68,693.65 315.72,685.29 L 312.50 678.50 L 312.50 625.40 C312.50,586.68 312.82,571.65 313.68,569.90 C314.33,568.58 315.13,565.83 315.47,563.78 C315.80,561.74 316.74,559.41 317.54,558.60 C318.34,557.80 319.00,556.77 319.00,556.31 C319.00,555.85 319.90,554.92 321.00,554.23 C322.10,553.55 323.00,552.49 323.00,551.89 C323.00,551.28 324.42,549.00 326.15,546.81 L 329.31 542.82 L 315.90 543.46 C300.08,544.22 297.67,543.51 297.20,537.95 C296.97,535.24 297.85,532.99 301.08,527.98 C305.01,521.88 323.60,498.30 331.41,489.50 C335.61,484.77 335.75,483.68 332.66,479.59 C331.37,477.89 329.71,475.38 328.97,474.00 C326.30,469.02 323.91,451.00 325.91,451.00 C326.58,451.00 327.00,448.52 327.00,444.49 C327.00,440.90 327.38,437.19 327.84,436.24 C328.30,435.28 329.63,432.70 330.79,430.50 C331.96,428.30 333.82,424.59 334.92,422.25 C336.02,419.91 337.37,418.00 337.92,418.00 C338.46,418.00 340.36,415.86 342.15,413.25 C343.93,410.64 346.09,407.96 346.95,407.31 C350.16,404.85 366.71,397.04 372.00,395.50 C385.62,391.53 403.81,392.86 414.67,398.64 L 419.41 401.16 L 421.29 398.58 C422.32,397.16 423.57,396.00 424.06,396.00 C424.56,396.00 427.47,397.60 430.53,399.56 C438.34,404.56 443.39,406.15 451.73,406.24 C461.97,406.36 471.39,401.65 482.03,391.11 C494.99,378.27 501.36,364.79 507.55,337.07 C508.96,330.78 510.34,325.26 510.61,324.82 C511.54,323.32 514.86,323.98 515.34,325.75 C515.61,326.71 517.48,334.16 519.51,342.31 C523.63,358.85 526.28,366.22 531.37,375.34 C538.58,388.22 554.37,402.04 565.25,404.98 C573.39,407.18 583.36,405.93 592.39,401.58 C596.67,399.52 600.28,397.99 600.40,398.17 C600.61,398.49 614.90,415.76 617.76,419.17 C619.00,420.64 618.61,421.51 614.41,426.66 C605.50,437.60 601.49,450.76 603.76,461.59 C606.12,472.86 613.89,485.50 618.44,485.50 C619.89,485.50 620.45,486.09 620.32,487.50 C620.11,489.77 625.76,493.96 635.50,498.76 C641.76,501.85 656.67,506.08 668.29,508.06 C672.02,508.70 675.73,509.88 676.54,510.68 C678.20,512.34 678.48,515.59 677.04,516.48 C676.51,516.80 669.20,518.43 660.79,520.08 C639.85,524.21 629.66,529.04 619.00,539.89 C599.61,559.63 598.02,581.11 614.47,601.31 C619.42,607.39 619.42,607.24 614.73,613.27 C612.45,616.21 612.05,617.35 612.94,618.42 C615.22,621.18 628.28,625.19 636.78,625.74 L 645.07 626.29 L 646.25 623.14 C646.90,621.41 647.84,620.00 648.33,620.00 C648.81,620.00 648.94,620.67 648.61,621.50 C648.27,622.33 647.71,623.73 647.35,624.61 C646.80,625.98 647.22,626.12 650.10,625.52 C655.97,624.29 661.19,620.64 662.40,616.90 C663.31,614.07 664.05,613.45 666.75,613.19 C670.46,612.83 671.11,611.30 667.75,610.82 C666.17,610.59 665.57,609.90 665.73,608.50 C665.86,607.40 665.97,592.18 665.98,574.69 C665.99,554.80 666.38,542.15 667.03,540.95 C671.23,533.10 687.26,535.74 698.53,546.14 C707.79,554.67 712.76,565.18 713.12,576.96 C713.28,582.31 713.45,582.73 715.07,581.73 C717.23,580.38 720.19,582.35 719.33,584.57 C718.66,586.33 714.08,586.47 713.78,584.75 C713.66,584.06 713.32,605.10 713.03,631.50 L 712.50 679.50 L 709.17 686.30 C705.19,694.46 696.50,703.70 689.49,707.25 C678.68,712.72 676.31,713.00 640.38,713.00 C619.28,713.00 606.89,713.37 606.50,714.00 C605.71,715.29 602.27,715.30 601.83,714.02 C601.65,713.48 595.32,712.81 587.69,712.53 C580.10,712.24 573.05,711.56 572.03,711.02 C569.01,709.40 551.91,708.32 549.81,709.61 C549.37,709.89 549.00,710.99 549.00,712.06 C549.00,714.37 547.24,714.53 543.44,712.55 C541.90,711.75 540.27,711.33 539.82,711.61 C539.37,711.89 539.00,711.16 539.00,709.99 C539.00,707.00 534.62,707.62 534.19,710.67 C533.94,712.43 534.27,712.74 535.94,712.31 C537.39,711.93 538.00,712.24 538.00,713.38 C538.00,715.20 535.93,715.53 534.37,713.97 C532.35,711.95 530.00,714.04 529.98,717.86 C529.98,719.86 529.53,722.17 529.00,723.00 C528.33,724.04 528.03,722.21 528.02,716.99 ZM 359.53 686.20 C358.42,685.08 356.08,687.05 356.68,688.60 C357.27,690.15 357.43,690.13 358.65,688.46 C359.38,687.46 359.78,686.45 359.53,686.20 ZM 563.29 678.89 C561.60,677.20 559.59,678.81 561.11,680.63 C561.95,681.64 562.63,681.77 563.36,681.04 C564.08,680.32 564.06,679.66 563.29,678.89 ZM 572.81 677.74 C573.01,676.73 572.54,676.00 571.70,676.00 C569.91,676.00 567.76,678.43 568.71,679.38 C569.91,680.57 572.46,679.55 572.81,677.74 ZM 517.15 640.56 C519.17,636.15 516.43,633.17 511.50,634.41 C509.45,634.93 509.00,635.65 509.00,638.44 C509.00,641.95 509.89,642.79 513.77,642.92 C515.25,642.97 516.43,642.15 517.15,640.56 ZM 516.69 601.53 C519.82,600.63 521.56,594.95 519.82,591.30 C518.31,588.17 514.42,586.43 510.88,587.32 C508.37,587.95 505.00,592.62 505.00,595.48 C505.00,597.99 510.66,603.23 512.74,602.65 C513.71,602.38 515.48,601.88 516.69,601.53 ZM 466.25 593.23 C469.70,590.20 467.98,583.89 463.27,582.24 C455.26,579.45 450.31,590.41 457.76,594.43 C460.73,596.03 463.51,595.64 466.25,593.23 ZM 571.25 593.19 C573.46,591.29 573.51,586.22 571.35,583.83 C569.28,581.55 564.26,581.46 561.83,583.65 C559.97,585.34 559.38,590.48 560.79,592.70 C561.84,594.34 566.17,595.85 568.00,595.22 C568.83,594.93 570.29,594.02 571.25,593.19 ZM 454.44 579.78 C455.30,578.56 456.00,576.98 456.00,576.28 C456.00,574.31 452.24,571.00 450.00,571.00 C447.89,571.00 444.00,574.27 444.00,576.05 C444.00,577.84 448.81,582.00 450.90,582.00 C451.99,582.00 453.59,581.00 454.44,579.78 ZM 580.81 579.96 C584.84,576.21 583.18,569.64 577.93,568.48 C571.25,567.02 567.25,575.69 572.63,579.93 C575.95,582.54 578.04,582.55 580.81,579.96 ZM 519.00 575.89 C519.00,575.20 520.24,574.96 522.25,575.26 C524.04,575.53 528.32,574.89 531.78,573.83 C556.64,566.20 574.97,541.34 575.37,514.73 L 575.50 505.58 L 565.00 504.41 C559.22,503.76 554.50,503.29 554.50,503.37 C554.49,503.44 553.44,505.01 552.14,506.85 C549.25,510.98 550.00,511.87 557.08,512.66 C565.52,513.61 565.99,514.59 558.68,515.97 C555.06,516.65 551.46,517.72 550.69,518.35 C549.40,519.40 546.00,528.48 546.00,530.88 C546.00,531.43 548.73,533.98 552.06,536.55 C555.39,539.11 557.94,541.40 557.71,541.62 C557.48,541.85 553.97,540.68 549.90,539.02 C545.83,537.36 542.40,536.01 542.28,536.00 C542.17,536.00 540.48,537.40 538.53,539.10 C534.44,542.70 534.32,543.65 536.96,552.12 C538.04,555.58 538.74,558.59 538.53,558.80 C538.32,559.01 537.01,557.46 535.62,555.34 C529.86,546.56 529.90,546.59 524.11,547.97 C521.26,548.66 518.30,549.85 517.53,550.62 C516.76,551.39 515.56,555.39 514.87,559.51 C514.18,563.63 513.31,567.00 512.93,567.00 C512.56,567.00 511.95,563.87 511.57,560.04 C510.75,551.71 509.27,549.72 502.60,547.95 C497.16,546.51 497.65,546.20 489.83,556.11 L 487.16 559.50 L 489.21 552.34 C491.62,543.92 491.15,540.95 486.92,537.94 C483.55,535.54 484.91,535.31 472.50,540.41 L 468.50 542.06 L 473.50 537.55 C476.25,535.07 478.84,533.03 479.25,533.02 C480.48,532.99 479.95,527.84 478.17,522.52 L 476.50 517.53 L 469.21 516.14 C465.20,515.37 462.15,514.51 462.43,514.23 C462.71,513.95 465.94,513.22 469.60,512.61 L 476.25 511.50 L 477.97 505.00 C478.91,501.42 479.98,497.83 480.34,497.00 C480.80,495.95 479.07,494.00 474.58,490.50 C471.05,487.75 468.32,485.34 468.51,485.15 C468.70,484.96 471.78,485.98 475.35,487.40 C483.61,490.71 484.72,490.67 488.62,486.89 L 491.83 483.78 L 490.29 478.64 C487.31,468.71 487.15,468.00 487.82,468.01 C488.19,468.01 490.24,470.71 492.36,474.01 C496.65,480.67 497.66,481.02 505.22,478.44 C509.38,477.02 509.89,476.49 510.90,472.50 C511.50,470.09 512.01,466.85 512.02,465.31 C512.02,463.76 512.41,461.90 512.88,461.16 C513.43,460.30 514.14,462.61 514.89,467.64 C515.53,471.94 516.49,475.89 517.01,476.41 C517.54,476.94 520.48,478.15 523.55,479.10 L 529.14 480.83 L 533.80 474.35 C536.36,470.78 538.59,468.26 538.74,468.73 C538.90,469.21 538.12,472.23 537.02,475.45 C534.56,482.60 534.55,483.88 536.94,486.75 C539.41,489.70 546.39,489.78 552.65,486.93 C555.15,485.79 557.40,485.07 557.65,485.32 C557.90,485.57 556.47,487.11 554.49,488.75 L 550.87 491.73 L 552.93 495.12 C554.06,496.98 554.99,499.24 555.00,500.14 C555.00,501.94 557.25,502.53 568.25,503.61 C571.96,503.98 575.00,503.93 575.00,503.50 C575.00,503.07 574.06,499.52 572.91,495.61 C566.84,474.95 550.19,458.42 529.50,452.51 C520.61,449.97 504.52,450.22 495.50,453.04 C486.57,455.83 482.91,457.71 475.24,463.48 C467.34,469.41 459.08,480.68 454.82,491.30 C451.68,499.14 451.54,500.09 451.52,513.00 C451.50,528.06 452.54,532.53 458.73,544.00 C467.69,560.60 483.42,572.20 501.50,575.53 C510.48,577.18 519.00,577.36 519.00,575.89 ZM 523.42 529.18 C527.96,526.09 531.93,519.06 531.97,514.07 C532.01,509.39 528.59,502.69 524.63,499.67 C521.18,497.04 514.14,494.69 511.86,495.41 C511.11,495.64 509.30,496.10 507.83,496.42 C504.12,497.23 499.28,501.53 496.96,506.09 C493.29,513.27 495.19,523.16 501.15,527.90 C508.24,533.52 516.38,533.99 523.42,529.18 ZM 441.69 518.83 C444.84,515.86 444.71,511.70 441.37,509.07 C437.90,506.35 435.45,506.46 432.45,509.45 C429.41,512.49 429.31,516.28 432.19,518.96 C435.03,521.61 438.78,521.55 441.69,518.83 ZM 594.00 519.00 C596.71,516.29 596.50,515.16 592.44,510.57 L 588.97 506.63 L 586.23 508.66 C582.58,511.38 582.08,516.06 585.13,518.91 C587.96,521.55 591.42,521.58 594.00,519.00 ZM 627.00 513.04 C627.00,509.37 622.35,507.66 620.01,510.49 C618.40,512.43 619.51,516.74 621.75,517.25 C623.91,517.74 627.00,515.26 627.00,513.04 ZM 406.80 513.91 C407.16,510.80 404.84,508.60 402.10,509.47 C397.40,510.96 398.99,517.37 403.91,516.80 C405.85,516.58 406.58,515.85 406.80,513.91 ZM 455.00 456.00 C459.25,451.75 456.43,445.00 450.40,445.00 C444.65,445.00 441.90,451.90 446.00,456.00 C447.10,457.10 449.12,458.00 450.50,458.00 C451.88,458.00 453.90,457.10 455.00,456.00 ZM 581.00 456.00 C585.24,451.76 582.43,445.00 576.42,445.00 C572.31,445.00 570.00,447.24 570.00,451.24 C570.00,457.40 576.70,460.30 581.00,456.00 ZM 465.64 443.45 C468.60,440.49 468.29,436.66 464.85,433.75 C462.00,431.34 459.35,431.56 456.45,434.45 C453.48,437.43 453.30,441.30 456.00,444.00 C458.73,446.73 462.58,446.51 465.64,443.45 ZM 571.00 444.00 C575.13,439.87 572.18,432.00 566.50,432.00 C565.12,432.00 563.10,432.90 562.00,434.00 C557.87,438.13 560.82,446.00 566.50,446.00 C567.88,446.00 569.90,445.10 571.00,444.00 ZM 516.34 437.89 C521.23,435.66 522.36,429.27 518.55,425.45 C514.13,421.04 506.98,423.26 505.40,429.53 C504.66,432.49 507.11,436.70 510.31,437.99 C513.25,439.18 513.53,439.17 516.34,437.89 ZM 517.18 395.66 C519.79,393.68 520.47,389.37 518.63,386.57 C515.83,382.29 509.27,382.91 507.11,387.66 C505.62,390.93 505.68,391.32 508.07,394.37 C510.35,397.25 514.34,397.82 517.18,395.66 ZM 486.56 719.78 C483.09,714.82 486.27,707.00 491.76,707.00 C494.60,707.00 498.77,710.85 499.56,714.20 C501.01,720.39 490.22,725.01 486.56,719.78 ZM 540.64 719.31 C539.44,718.11 539.99,716.00 541.50,716.00 C542.33,716.00 543.00,716.65 543.00,717.44 C543.00,719.11 541.57,720.24 540.64,719.31 ZM 453.59 710.37 C452.74,708.16 454.86,705.84 457.41,706.20 C458.85,706.41 459.60,707.35 459.82,709.25 C460.10,711.70 459.81,712.00 457.17,712.00 C455.36,712.00 453.97,711.37 453.59,710.37 ZM 438.64 706.31 C437.51,705.18 437.95,704.00 439.50,704.00 C440.33,704.00 441.00,704.42 441.00,704.94 C441.00,706.20 439.44,707.11 438.64,706.31 ZM 518.00 702.53 C518.00,701.64 518.59,701.29 519.49,701.64 C520.32,701.95 520.74,702.61 520.44,703.10 C519.56,704.52 518.00,704.15 518.00,702.53 ZM 451.70 697.37 C451.32,696.98 451.00,695.81 451.00,694.76 C451.00,693.36 451.59,692.95 453.25,693.18 C454.72,693.39 455.50,694.19 455.50,695.49 C455.50,697.47 453.03,698.69 451.70,697.37 ZM 435.54 694.07 C434.80,692.87 436.68,691.69 438.02,692.51 C439.13,693.20 438.40,695.00 437.00,695.00 C436.51,695.00 435.86,694.58 435.54,694.07 ZM 465.00 694.00 C465.00,693.45 465.42,693.00 465.94,693.00 C466.46,693.00 467.16,693.45 467.50,694.00 C467.84,694.55 467.42,695.00 466.56,695.00 C465.70,695.00 465.00,694.55 465.00,694.00 ZM 376.33 693.19 C373.37,692.77 372.58,690.27 375.15,689.45 C376.28,689.09 377.65,689.25 378.19,689.79 C379.82,691.42 378.67,693.52 376.33,693.19 ZM 382.00 691.50 C382.00,688.37 382.04,688.61 381.03,685.09 C380.30,682.56 380.44,682.16 382.03,682.28 C384.00,682.43 384.63,684.17 384.90,690.25 C385.02,693.02 384.66,694.00 383.53,694.00 C382.56,694.00 382.00,693.08 382.00,691.50 ZM 367.34 687.43 C366.51,685.28 368.15,682.61 370.59,682.13 C371.62,681.93 375.72,678.85 379.70,675.29 C383.68,671.73 387.46,668.99 388.10,669.20 C389.43,669.64 389.21,669.88 380.17,677.83 C376.09,681.42 374.02,684.03 373.81,685.83 C373.57,687.91 372.89,688.57 370.74,688.82 C368.87,689.03 367.78,688.59 367.34,687.43 ZM 410.57 688.11 C410.27,687.63 410.63,686.72 411.38,686.10 C412.40,685.26 413.01,685.31 413.86,686.33 C414.48,687.07 414.69,687.98 414.32,688.34 C413.38,689.29 411.21,689.15 410.57,688.11 ZM 480.25 686.26 C478.94,685.39 478.00,683.73 478.00,682.31 C478.00,680.23 478.41,679.91 480.75,680.18 C483.66,680.52 484.93,683.57 483.32,686.36 C482.62,687.57 482.18,687.56 480.25,686.26 ZM 466.65 680.94 C464.53,680.58 462.40,679.66 461.91,678.89 C460.64,676.88 460.80,673.60 462.24,672.16 C463.23,671.17 463.19,670.73 462.02,670.01 C459.75,668.61 461.54,667.68 467.00,667.40 C472.87,667.11 475.02,669.15 474.97,674.97 C474.93,679.71 471.94,681.85 466.65,680.94 ZM 415.87 667.35 C414.11,665.23 416.00,662.53 419.33,662.40 C420.76,662.34 422.64,661.72 423.49,661.01 C424.35,660.30 425.26,659.93 425.52,660.19 C425.78,660.45 424.87,661.27 423.50,662.00 C421.90,662.85 421.00,664.20 421.00,665.73 C421.00,667.07 421.44,667.85 422.00,667.50 C422.55,667.16 423.00,667.29 423.00,667.79 C423.00,669.32 417.21,668.96 415.87,667.35 ZM 390.00 666.60 C390.00,665.04 393.74,661.00 395.19,661.00 C396.64,661.00 396.05,663.65 394.25,665.19 C391.20,667.81 390.00,668.21 390.00,666.60 ZM 473.00 665.00 C473.00,664.45 473.42,664.00 473.94,664.00 C474.46,664.00 475.16,664.45 475.50,665.00 C475.84,665.55 475.42,666.00 474.56,666.00 C473.70,666.00 473.00,665.55 473.00,665.00 ZM 587.50 662.00 C586.77,660.82 587.72,659.00 589.06,659.00 C589.58,659.00 590.00,659.90 590.00,661.00 C590.00,663.11 588.55,663.69 587.50,662.00 ZM 539.67 659.33 C538.52,658.18 538.94,657.00 540.50,657.00 C541.33,657.00 542.00,657.67 542.00,658.50 C542.00,660.06 540.82,660.48 539.67,659.33 ZM 486.05 657.56 C484.46,655.65 485.07,651.97 487.19,650.64 C488.48,649.83 489.37,650.02 490.94,651.45 C493.50,653.76 493.51,654.49 491.00,657.00 C488.62,659.38 487.65,659.49 486.05,657.56 ZM 615.00 658.00 C615.00,657.45 615.45,657.00 616.00,657.00 C616.55,657.00 617.00,657.45 617.00,658.00 C617.00,658.55 616.55,659.00 616.00,659.00 C615.45,659.00 615.00,658.55 615.00,658.00 ZM 432.00 656.04 C432.00,654.88 432.69,653.67 433.54,653.35 C435.39,652.64 435.71,652.89 436.15,655.50 C436.40,656.94 435.88,657.59 434.25,657.82 C432.53,658.06 432.00,657.64 432.00,656.04 ZM 438.00 656.17 C438.00,654.05 439.27,652.00 440.57,652.00 C441.56,652.00 441.71,652.61 441.12,654.20 C440.28,656.48 438.00,657.92 438.00,656.17 ZM 455.00 656.00 C455.00,655.45 455.45,655.00 456.00,655.00 C456.55,655.00 457.00,655.45 457.00,656.00 C457.00,656.55 456.55,657.00 456.00,657.00 C455.45,657.00 455.00,656.55 455.00,656.00 ZM 594.00 654.00 C594.00,652.89 594.67,652.00 595.50,652.00 C596.33,652.00 597.00,652.89 597.00,654.00 C597.00,655.11 596.33,656.00 595.50,656.00 C594.67,656.00 594.00,655.11 594.00,654.00 ZM 369.67 654.33 C368.73,653.40 368.83,650.00 369.80,650.00 C371.29,650.00 372.85,652.24 372.31,653.62 C371.74,655.12 370.72,655.39 369.67,654.33 ZM 404.45 652.91 C403.42,651.25 405.73,649.33 407.11,650.71 C408.27,651.87 407.54,654.00 406.00,654.00 C405.51,654.00 404.82,653.51 404.45,652.91 ZM 417.00 653.00 C417.00,652.45 417.45,652.00 418.00,652.00 C418.55,652.00 419.00,652.45 419.00,653.00 C419.00,653.55 418.55,654.00 418.00,654.00 C417.45,654.00 417.00,653.55 417.00,653.00 ZM 462.19 652.26 C462.69,649.65 466.00,649.36 466.00,651.93 C466.00,653.36 465.36,654.00 463.93,654.00 C462.50,654.00 461.96,653.46 462.19,652.26 ZM 548.00 652.11 C548.00,649.87 550.31,648.71 551.80,650.20 C553.29,651.69 552.13,654.00 549.89,654.00 C548.70,654.00 548.00,653.30 548.00,652.11 ZM 445.43 651.89 C444.65,650.62 447.49,648.00 449.63,648.00 C451.30,648.00 452.45,649.97 451.36,650.97 C449.67,652.54 446.17,653.08 445.43,651.89 ZM 537.45 651.91 C537.08,651.31 537.24,650.36 537.80,649.80 C539.06,648.54 541.00,649.60 541.00,651.56 C541.00,653.24 538.43,653.50 537.45,651.91 ZM 555.25 647.78 C551.94,646.18 552.51,644.93 556.00,646.15 C557.65,646.73 559.00,647.60 559.00,648.10 C559.00,649.23 558.10,649.15 555.25,647.78 ZM 572.00 646.06 C572.00,645.54 572.45,644.84 573.00,644.50 C573.55,644.16 574.00,644.58 574.00,645.44 C574.00,646.30 573.55,647.00 573.00,647.00 C572.45,647.00 572.00,646.58 572.00,646.06 ZM 412.00 645.11 C412.00,643.84 417.05,640.72 417.84,641.51 C418.20,641.87 417.44,643.03 416.14,644.09 C413.60,646.14 412.00,646.54 412.00,645.11 ZM 567.69 645.35 C566.27,643.94 567.07,642.00 569.07,642.00 C570.47,642.00 571.04,642.54 570.82,643.67 C570.47,645.51 568.76,646.43 567.69,645.35 ZM 472.00 642.96 L 469.50 642.28 L 472.32 641.14 C476.07,639.62 478.00,639.70 478.00,641.38 C478.00,643.12 475.26,643.84 472.00,642.96 ZM 546.50 643.00 C546.84,642.45 547.54,642.00 548.06,642.00 C548.58,642.00 549.00,642.45 549.00,643.00 C549.00,643.55 548.30,644.00 547.44,644.00 C546.58,644.00 546.16,643.55 546.50,643.00 ZM 541.00 641.98 C539.69,641.12 539.68,640.88 540.97,640.06 C541.91,639.45 542.89,639.50 543.72,640.18 C546.51,642.50 544.17,644.06 541.00,641.98 ZM 447.00 640.58 C447.00,639.71 447.71,639.00 448.58,639.00 C450.35,639.00 450.04,641.15 448.19,641.77 C447.53,641.99 447.00,641.45 447.00,640.58 ZM 419.67 638.33 C418.51,637.17 418.94,636.10 421.01,634.99 C422.62,634.13 423.16,634.25 423.66,635.56 C424.50,637.73 421.29,639.96 419.67,638.33 ZM 651.61 609.25 C651.97,607.74 652.71,606.05 653.27,605.50 C653.94,604.83 654.07,605.32 653.65,607.00 C653.31,608.38 653.02,610.06 653.01,610.75 C653.01,611.44 652.54,612.00 651.98,612.00 C651.38,612.00 651.23,610.88 651.61,609.25 ZM 393.67 609.33 C392.30,607.96 393.07,605.22 394.96,604.72 C397.29,604.11 399.47,606.34 398.64,608.49 C398.06,610.02 394.89,610.56 393.67,609.33 ZM 655.00 593.56 C655.00,591.19 656.21,589.54 657.22,590.55 C658.00,591.34 656.86,596.00 655.88,596.00 C655.40,596.00 655.00,594.90 655.00,593.56 ZM 622.18 589.33 C622.66,586.82 625.00,586.48 625.00,588.92 C625.00,590.15 624.35,591.00 623.43,591.00 C622.50,591.00 621.99,590.32 622.18,589.33 ZM 617.00 585.00 C616.24,583.58 616.24,582.42 617.00,581.00 C618.17,578.82 618.43,578.74 621.75,579.63 C624.60,580.39 624.80,584.50 622.07,585.96 C619.27,587.46 618.21,587.26 617.00,585.00 ZM 402.00 583.00 C402.00,582.45 402.45,582.00 403.00,582.00 C403.55,582.00 404.00,582.45 404.00,583.00 C404.00,583.55 403.55,584.00 403.00,584.00 C402.45,584.00 402.00,583.55 402.00,583.00 ZM 657.00 579.06 C657.00,577.99 657.45,576.84 658.00,576.50 C658.57,576.15 659.00,576.99 659.00,578.44 C659.00,579.85 658.55,581.00 658.00,581.00 C657.45,581.00 657.00,580.13 657.00,579.06 ZM 719.00 557.58 C719.00,556.71 719.71,556.00 720.58,556.00 C722.35,556.00 722.04,558.15 720.19,558.77 C719.53,558.99 719.00,558.45 719.00,557.58 ZM 658.00 553.00 C658.00,551.35 658.45,550.00 659.00,550.00 C659.55,550.00 660.00,551.35 660.00,553.00 C660.00,554.65 659.55,556.00 659.00,556.00 C658.45,556.00 658.00,554.65 658.00,553.00 ZM 658.00 541.06 C658.00,539.38 658.45,538.00 659.00,538.00 C659.55,538.00 660.00,539.10 660.00,540.44 C660.00,541.78 659.55,543.16 659.00,543.50 C658.42,543.86 658.00,542.84 658.00,541.06 ZM 714.15 542.56 C714.34,541.64 714.95,540.92 715.50,540.95 C716.98,541.03 716.71,543.26 715.15,543.78 C714.31,544.06 713.94,543.61 714.15,542.56 ZM 700.10 540.06 C698.40,539.01 699.37,536.00 701.41,536.00 C703.61,536.00 704.43,538.00 702.87,539.56 C702.01,540.42 700.98,540.61 700.10,540.06 ZM 712.00 538.00 C712.00,537.45 712.45,537.00 713.00,537.00 C713.55,537.00 714.00,537.45 714.00,538.00 C714.00,538.55 713.55,539.00 713.00,539.00 C712.45,539.00 712.00,538.55 712.00,538.00 ZM 718.18 529.45 C718.63,527.28 720.40,527.14 720.81,529.25 C721.02,530.34 720.53,531.00 719.50,531.00 C718.54,531.00 717.99,530.35 718.18,529.45 ZM 726.00 530.00 C726.00,529.45 726.45,529.00 727.00,529.00 C727.55,529.00 728.00,529.45 728.00,530.00 C728.00,530.55 727.55,531.00 727.00,531.00 C726.45,531.00 726.00,530.55 726.00,530.00 ZM 679.58 523.13 C679.15,522.44 679.07,521.60 679.40,521.27 C680.29,520.37 681.27,521.69 680.79,523.14 C680.45,524.15 680.21,524.15 679.58,523.13 ZM 339.61 512.43 C338.77,510.24 340.80,506.81 342.71,507.19 C344.86,507.61 346.45,510.38 345.69,512.36 C344.89,514.45 340.41,514.50 339.61,512.43 ZM 710.19 508.92 C710.39,508.33 710.98,507.85 711.50,507.85 C712.02,507.85 712.61,508.33 712.81,508.92 C713.01,509.52 712.42,510.00 711.50,510.00 C710.58,510.00 709.99,509.52 710.19,508.92 ZM 717.49 502.94 C718.59,501.60 721.13,498.65 723.13,496.40 C728.15,490.74 728.74,488.41 725.92,485.41 C723.87,483.23 722.84,483.00 715.25,483.00 C709.12,483.00 706.45,483.40 705.36,484.50 C703.33,486.53 702.00,486.39 702.00,484.14 C702.00,482.60 703.05,482.17 708.15,481.64 C724.02,479.98 731.04,481.42 730.96,486.31 C730.90,490.14 725.80,497.25 719.59,502.15 C716.36,504.69 715.92,504.86 717.49,502.94 ZM 689.92 503.75 C689.15,501.22 689.51,499.97 691.17,499.45 C693.81,498.61 694.40,499.38 693.05,501.91 C692.13,503.63 690.23,504.75 689.92,503.75 ZM 675.39 500.16 C673.78,499.03 671.00,494.15 671.00,492.46 C671.00,491.58 671.62,490.23 672.39,489.47 C673.57,488.29 674.30,488.88 677.37,493.50 C679.34,496.47 680.63,499.08 680.23,499.30 C678.19,500.40 676.22,500.75 675.39,500.16 ZM 700.24 497.89 C699.01,497.44 698.00,496.63 698.00,496.10 C698.00,494.38 701.22,491.87 702.71,492.44 C703.51,492.75 704.35,493.00 704.58,493.00 C705.44,493.00 704.90,495.55 703.71,497.11 C702.82,498.27 701.86,498.49 700.24,497.89 ZM 681.76 496.43 C678.28,494.55 676.00,490.15 676.00,485.35 C676.00,482.43 675.73,481.87 674.80,482.80 C672.73,484.87 670.00,484.24 670.00,481.70 C670.00,480.43 670.46,478.94 671.02,478.38 C671.71,477.69 671.15,475.78 669.30,472.43 L 666.56 467.50 L 666.01 438.00 L 665.47 408.50 L 660.77 398.15 C655.56,386.68 647.62,375.99 640.17,370.40 C632.48,364.63 625.37,360.31 622.35,359.56 C620.78,359.17 618.15,358.24 616.50,357.50 C612.27,355.59 605.16,355.13 604.55,356.73 C604.28,357.43 603.67,358.00 603.18,358.00 C601.74,358.00 597.86,354.24 597.62,352.60 C597.26,350.14 592.92,347.00 589.88,347.00 C587.11,347.00 584.30,350.06 585.42,351.87 C585.70,352.33 584.71,352.64 583.22,352.57 C581.72,352.50 579.38,352.85 578.00,353.34 C570.58,356.01 561.18,355.58 556.53,352.36 C555.44,351.61 553.19,350.99 551.53,350.99 C547.01,350.97 544.08,349.96 544.60,348.60 C544.86,347.93 543.25,345.93 541.03,344.15 C537.75,341.51 537.00,340.28 537.00,337.50 C537.00,332.09 538.80,329.35 543.55,327.54 C545.94,326.62 549.44,324.09 551.41,321.84 L 554.96 317.79 L 552.73 315.93 C551.50,314.90 550.99,314.05 551.60,314.03 C552.20,314.01 553.42,314.81 554.31,315.79 C555.62,317.24 557.45,317.57 563.85,317.51 C568.21,317.47 572.39,316.94 573.14,316.33 C575.08,314.76 583.87,313.87 588.00,314.83 C590.34,315.37 592.16,315.23 593.50,314.41 C597.81,311.76 664.42,309.82 676.11,312.01 C689.86,314.57 701.96,324.05 708.58,337.45 L 712.50 345.40 L 712.50 400.45 C712.50,444.72 712.23,456.45 711.10,460.33 C709.11,467.19 702.57,477.00 700.00,477.00 C698.02,477.00 698.01,477.11 699.58,480.16 C703.63,487.99 697.52,498.04 688.76,497.96 C686.42,497.94 683.27,497.25 681.76,496.43 ZM 578.00 338.67 C578.00,337.94 576.76,336.70 575.25,335.92 C573.74,335.14 572.18,334.06 571.79,333.51 C570.83,332.16 568.56,334.48 569.45,335.91 C569.82,336.51 571.16,337.00 572.44,337.00 C573.71,337.00 575.32,337.67 576.00,338.50 C577.53,340.35 578.00,340.39 578.00,338.67 ZM 579.44 325.09 C580.42,323.51 578.86,321.00 576.89,321.00 C575.69,321.00 575.00,321.70 575.00,322.92 C575.00,325.38 578.27,326.98 579.44,325.09 ZM 370.45 475.91 C369.59,474.52 371.49,472.57 372.87,473.42 C374.02,474.13 373.28,477.00 371.95,477.00 C371.49,477.00 370.82,476.51 370.45,475.91 ZM 320.63 472.47 C320.19,471.33 320.50,470.95 321.68,471.18 C323.46,471.52 323.80,473.23 322.20,473.77 C321.67,473.94 320.97,473.36 320.63,472.47 ZM 634.43 470.89 C633.57,469.49 636.17,467.77 637.35,468.95 C638.32,469.92 637.39,472.00 636.00,472.00 C635.51,472.00 634.81,471.50 634.43,470.89 ZM 392.34 461.03 C392.70,459.23 393.00,456.82 393.00,455.67 C393.00,454.20 393.31,453.91 394.07,454.67 C395.32,455.92 394.31,462.69 392.73,463.67 C392.04,464.09 391.91,463.20 392.34,461.03 ZM 651.00 445.92 C649.81,445.08 649.94,444.99 651.64,445.47 C654.91,446.38 659.00,444.09 659.00,441.34 C659.00,440.05 659.45,439.00 660.00,439.00 C660.55,439.00 661.00,440.10 661.00,441.44 C661.00,445.69 654.70,448.51 651.00,445.92 ZM 631.00 444.00 C631.00,442.71 631.51,442.00 632.25,442.25 C632.94,442.48 633.50,443.27 633.50,444.00 C633.50,444.73 632.94,445.52 632.25,445.75 C631.51,446.00 631.00,445.29 631.00,444.00 ZM 648.75 439.56 C647.79,438.86 647.00,437.53 647.00,436.62 C647.00,435.32 647.59,435.10 649.75,435.62 C651.26,435.98 652.58,436.33 652.67,436.39 C652.76,436.45 652.31,437.48 651.67,438.67 C650.67,440.53 650.25,440.66 648.75,439.56 ZM 654.00 417.50 C654.00,416.67 654.67,416.00 655.50,416.00 C656.33,416.00 657.00,416.67 657.00,417.50 C657.00,418.33 656.33,419.00 655.50,419.00 C654.67,419.00 654.00,418.33 654.00,417.50 ZM 313.17 412.83 C313.39,411.28 314.17,410.50 315.50,410.50 C318.48,410.50 318.18,414.40 315.17,414.83 C313.23,415.10 312.90,414.77 313.17,412.83 ZM 647.00 404.58 C647.00,403.71 647.71,403.00 648.58,403.00 C649.45,403.00 649.99,403.53 649.77,404.19 C649.15,406.04 647.00,406.35 647.00,404.58 ZM 576.00 384.92 C576.00,382.48 578.34,382.82 578.82,385.33 C579.01,386.32 578.50,387.00 577.57,387.00 C576.65,387.00 576.00,386.14 576.00,384.92 ZM 613.00 383.00 C613.00,382.45 613.67,382.00 614.50,382.00 C615.33,382.00 616.00,382.45 616.00,383.00 C616.00,383.55 615.33,384.00 614.50,384.00 C613.67,384.00 613.00,383.55 613.00,383.00 ZM 374.68 370.60 C374.38,369.83 374.72,368.40 375.42,367.43 C377.18,365.03 380.00,366.28 380.00,369.47 C380.00,371.47 379.50,372.00 377.61,372.00 C376.29,372.00 374.97,371.37 374.68,370.60 ZM 536.32 368.40 C535.54,366.35 538.00,364.76 539.73,366.19 C540.70,367.00 540.74,367.60 539.89,368.63 C538.38,370.45 537.08,370.36 536.32,368.40 ZM 417.07 366.37 C413.74,362.13 414.46,357.91 418.73,356.57 C420.38,356.06 421.62,356.53 423.48,358.39 C426.38,361.29 426.65,363.63 424.44,366.78 C422.37,369.74 419.60,369.58 417.07,366.37 ZM 421.00 358.94 C421.00,357.80 418.31,357.68 417.63,358.79 C417.36,359.23 418.01,359.65 419.07,359.73 C420.13,359.81 421.00,359.45 421.00,358.94 ZM 459.67 362.33 C458.40,361.07 459.01,360.00 461.00,360.00 C462.11,360.00 463.00,360.67 463.00,361.50 C463.00,363.02 460.88,363.55 459.67,362.33 ZM 586.87 359.75 C586.35,358.74 586.41,355.00 586.94,355.00 C588.07,355.00 590.00,357.33 590.00,358.70 C590.00,359.76 587.33,360.65 586.87,359.75 ZM 437.00 357.00 C437.00,356.45 437.70,356.00 438.56,356.00 C439.42,356.00 439.84,356.45 439.50,357.00 C439.16,357.55 438.46,358.00 437.94,358.00 C437.42,358.00 437.00,357.55 437.00,357.00 ZM 448.00 353.39 C448.00,352.89 449.13,351.26 450.51,349.77 C451.90,348.28 453.46,345.92 453.99,344.53 C454.52,343.14 455.61,342.00 456.42,342.00 C459.17,342.00 458.93,343.69 455.70,347.09 C451.16,351.88 448.00,354.47 448.00,353.39 ZM 465.79 343.08 C460.85,339.95 460.50,339.29 459.48,331.25 C458.95,327.05 458.44,326.00 456.97,326.00 C454.26,326.00 453.45,323.96 455.90,323.32 C457.05,323.01 458.00,322.13 458.00,321.35 C458.00,319.79 460.85,314.95 462.48,313.74 C464.01,312.60 471.38,314.03 472.32,315.65 C472.98,316.80 473.70,316.59 476.13,314.54 C479.04,312.10 479.24,312.07 482.32,313.64 C491.89,318.53 494.77,323.08 492.92,330.39 C492.03,333.93 490.57,335.86 485.33,340.39 C479.65,345.29 478.30,346.00 474.61,346.00 C471.67,346.00 469.00,345.12 465.79,343.08 ZM 447.67 340.33 C446.24,338.91 447.05,335.12 448.91,334.53 C449.96,334.20 451.07,333.27 451.38,332.46 C451.94,331.00 455.00,330.37 455.00,331.72 C455.00,332.11 454.26,334.36 453.36,336.72 C451.84,340.72 449.52,342.19 447.67,340.33 ZM 447.21 322.13 C445.56,321.11 447.51,318.60 449.40,319.32 C450.28,319.66 451.00,320.35 451.00,320.86 C451.00,322.14 448.55,322.96 447.21,322.13 ZM 496.75 318.26 C494.67,317.78 494.46,315.69 496.33,314.14 C497.32,313.32 498.16,313.40 499.58,314.46 C501.28,315.71 501.33,316.04 500.00,317.27 C499.17,318.04 497.71,318.48 496.75,318.26 ZM 490.00 302.50 C490.00,301.67 490.67,301.00 491.50,301.00 C492.33,301.00 493.00,301.67 493.00,302.50 C493.00,303.33 492.33,304.00 491.50,304.00 C490.67,304.00 490.00,303.33 490.00,302.50 ZM 470.00 302.00 C470.00,301.45 470.45,301.00 471.00,301.00 C471.55,301.00 472.00,301.45 472.00,302.00 C472.00,302.55 471.55,303.00 471.00,303.00 C470.45,303.00 470.00,302.55 470.00,302.00 ZM 475.00 301.21 C475.00,299.81 491.62,284.13 494.50,282.82 C495.88,282.19 497.30,281.97 497.66,282.33 C498.67,283.34 494.80,287.14 493.35,286.58 C492.64,286.31 491.76,286.59 491.38,287.20 C490.92,287.94 491.16,288.02 492.10,287.46 C493.29,286.74 493.29,286.87 492.09,288.36 C491.08,289.60 490.47,289.76 489.95,288.92 C489.48,288.16 486.74,290.27 482.11,294.95 C478.20,298.91 475.00,301.73 475.00,301.21 ZM 489.64 293.50 C489.95,292.67 490.57,292.00 491.00,292.00 C491.43,292.00 492.05,292.67 492.36,293.50 C492.75,294.52 492.31,295.00 491.00,295.00 C489.69,295.00 489.25,294.52 489.64,293.50 ZM 534.58 566.13 C534.15,565.44 534.07,564.60 534.40,564.27 C535.29,563.37 536.27,564.69 535.79,566.14 C535.45,567.15 535.21,567.15 534.58,566.13 ZM 515.48 516.96 C514.47,515.33 516.71,513.31 518.04,514.64 C518.77,515.37 518.64,516.05 517.63,516.89 C516.56,517.78 515.99,517.80 515.48,516.96 Z" fill="rgb(65,66,127)"/>
</g>
</svg>